<?xml version="1.0" encoding="UTF-8"?>
<svg xmlns="http://www.w3.org/2000/svg" xmlns:xlink="http://www.w3.org/1999/xlink" width="500px" height="500px" viewBox="0 0 500 500" version="1.1">
<g id="surface1">
<path style="fill-rule:nonzero;fill:rgb(5.098039%,79.215686%,94.117647%);fill-opacity:1;stroke-width:0.1;stroke-linecap:butt;stroke-linejoin:round;stroke:rgb(5.098039%,79.215686%,94.117647%);stroke-opacity:1;stroke-miterlimit:4;" d="M 22.015867 20.26993 C 21.845898 19.979133 21.618117 19.749906 21.327898 19.588031 C 21.127 19.472984 20.837937 19.366031 20.460133 19.272086 C 20.813945 19.150969 21.096937 19.000945 21.312 18.815078 C 21.527062 18.630945 21.692984 18.419062 21.806008 18.182031 C 21.919031 17.940953 21.978 17.688023 21.978 17.42093 C 21.978 17.054977 21.871047 16.717063 21.653961 16.410078 C 21.436875 16.103094 21.129023 15.86693 20.728094 15.703898 C 20.572 15.640016 20.384977 15.592031 20.184945 15.553008 L 20.184945 14.12793 L 18.815945 14.12793 L 18.815945 15.457039 L 17.936039 15.457039 L 17.936039 14.12793 L 16.567039 14.12793 L 16.567039 15.457039 L 14.479141 15.457039 L 14.479141 16.575133 L 14.797977 16.575133 C 15.009859 16.575133 15.152945 16.593922 15.230125 16.632945 C 15.304992 16.671102 15.357891 16.724 15.389109 16.789039 C 15.420039 16.854078 15.43507 17.007859 15.43507 17.246914 L 15.43507 21.753977 C 15.43507 21.990141 15.420039 22.143055 15.389109 22.208961 C 15.357891 22.274867 15.304992 22.328922 15.230125 22.365055 C 15.154102 22.402055 15.011016 22.419977 14.797977 22.419977 L 14.479141 22.419977 L 14.479141 23.53807 L 16.567039 23.53807 L 16.567039 24.866891 L 17.934883 24.866891 L 17.934883 23.53807 L 18.713906 23.53807 C 18.748883 23.53807 18.780969 23.536914 18.817102 23.536914 L 18.817102 24.866891 L 20.184078 24.866891 L 20.184078 23.423023 C 20.413883 23.379086 20.617961 23.323008 20.78793 23.253055 C 21.261125 23.064875 21.625922 22.789109 21.884055 22.426914 C 22.143055 22.067031 22.271977 21.671883 22.271977 21.242914 C 22.269953 20.887078 22.186125 20.561016 22.015867 20.26993 Z M 17.43307 16.761 L 18.319047 16.761 C 18.837047 16.761 19.194906 16.793086 19.396961 16.856969 C 19.596125 16.919984 19.751062 17.028094 19.858016 17.178117 C 19.962945 17.329008 20.016133 17.509961 20.016133 17.722133 C 20.016133 17.927078 19.960055 18.106875 19.847898 18.264125 C 19.736898 18.41993 19.568953 18.536133 19.348109 18.615914 C 19.124953 18.691937 18.783859 18.730961 18.319047 18.730961 L 17.43307 18.730961 Z M 19.936062 21.753977 C 19.779969 21.954875 19.586008 22.086977 19.359961 22.149992 C 19.13507 22.213008 18.852078 22.247117 18.506937 22.247117 L 17.916961 22.247117 C 17.720977 22.247117 17.601016 22.236133 17.555922 22.215031 C 17.511117 22.19393 17.479898 22.156062 17.461109 22.104031 C 17.444922 22.060961 17.435961 21.916141 17.431914 21.666969 L 17.431914 19.916984 L 18.478031 19.916984 C 18.935906 19.916984 19.277 19.960055 19.501023 20.045039 C 19.725047 20.128867 19.892992 20.254898 20.003992 20.421109 C 20.115859 20.587898 20.17107 20.789953 20.17107 21.029875 C 20.173094 21.312 20.093891 21.555102 19.936062 21.753977 Z M 33.763945 25.704883 C 33.659883 24.215922 32.96093 22.509008 31.674891 20.685023 C 31.395078 20.289008 31.084914 19.892125 30.759141 19.496977 C 31.084914 19.100961 31.395078 18.704945 31.674891 18.308062 C 33.794875 15.305859 34.340914 12.603992 33.212992 10.703117 C 32.277008 9.126859 30.329016 8.29407 27.575117 8.29407 C 26.642023 8.29407 25.643891 8.390906 24.605 8.575039 C 23.619008 5.943125 22.274867 3.974898 20.715953 2.979945 C 20.759023 2.798125 20.789086 2.611102 20.789086 2.417141 C 20.789953 1.081961 19.707992 0 18.373102 0 C 17.037922 0 15.955961 1.081961 15.955961 2.417141 C 15.955961 2.611969 15.984867 2.798992 16.029094 2.979945 C 14.471047 3.974898 13.128062 5.943125 12.140914 8.575039 C 11.102023 8.390906 10.105047 8.29407 9.171953 8.29407 C 6.418055 8.29407 4.468906 9.126859 3.534078 10.703117 C 2.405867 12.604859 2.951906 15.307016 5.071891 18.308062 C 5.352859 18.704945 5.661867 19.100961 5.98793 19.496977 C 5.661867 19.892992 5.352859 20.289008 5.071891 20.685023 C 3.786141 22.506117 3.088922 24.213898 2.983992 25.704883 C 2.133859 26.07893 1.538969 26.925883 1.538969 27.915055 C 1.538969 29.249078 2.62093 30.331906 3.956109 30.331906 C 4.461969 30.331906 4.931117 30.176102 5.319039 29.909875 C 6.324109 30.429898 7.613906 30.703062 9.173109 30.703062 C 10.105914 30.703062 11.102023 30.60507 12.140914 30.422094 C 13.596922 34.30507 15.827906 36.747937 18.373969 36.747937 C 20.920031 36.747937 23.149859 34.303047 24.605 30.422094 C 25.643891 30.605937 26.64 30.703062 27.575117 30.703062 C 27.575117 30.703062 27.575117 30.703062 27.575984 30.703062 C 29.134031 30.703062 30.424117 30.427008 31.430055 29.909875 C 31.819133 30.176102 32.285969 30.331906 32.792117 30.331906 C 34.127008 30.331906 35.208969 29.249945 35.208969 27.915055 C 35.208102 26.925883 34.612922 26.07893 33.763945 25.704883 Z M 27.575117 9.29307 C 29.23607 9.29307 31.412133 9.62607 32.351008 11.211867 C 33.252016 12.732914 32.707133 15.109008 30.857133 17.731094 C 30.622125 18.064094 30.366016 18.399984 30.094875 18.732117 C 28.962039 17.477008 27.615875 16.251094 26.111016 15.093109 C 25.871094 13.06707 25.473922 11.193078 24.938867 9.541086 C 25.867047 9.384992 26.755047 9.29307 27.575117 9.29307 Z M 21.943023 25.519883 C 20.769141 26.215945 19.570109 26.831937 18.373969 27.371039 C 17.178117 26.833094 15.97793 26.217969 14.804047 25.519883 C 13.670055 24.848102 12.599945 24.124 11.593141 23.373016 C 11.454969 22.125133 11.374031 20.831 11.374031 19.499867 C 11.374031 18.167867 11.454969 16.874891 11.593141 15.627008 C 12.599945 14.874867 13.670055 14.151922 14.804914 13.478984 C 15.979953 12.782922 17.178984 12.16693 18.373969 11.628984 C 19.570109 12.16693 20.770008 12.782055 21.943023 13.478984 C 23.077883 14.151922 24.147992 14.874867 25.15393 15.627008 C 25.292969 16.874891 25.373906 18.169023 25.373906 19.499867 C 25.373906 20.831 25.292969 22.125133 25.15393 23.373016 C 24.147992 24.123133 23.079039 24.848102 21.943023 25.519883 Z M 24.979047 24.737969 C 24.729008 26.368859 24.372016 27.884125 23.921078 29.245898 C 22.541094 28.938914 21.089133 28.489133 19.609133 27.89193 C 20.558125 27.432898 21.509141 26.936867 22.454086 26.376953 C 23.331102 25.85693 24.171117 25.308867 24.979047 24.737969 Z M 17.139094 27.895109 C 15.659094 28.492023 14.207133 28.942094 12.826859 29.247922 C 12.377945 27.887883 12.01893 26.370883 11.770047 24.739992 C 12.577109 25.308867 13.415969 25.860109 14.292984 26.381 C 15.237062 26.938023 16.188945 27.436078 17.139094 27.895109 Z M 10.499039 22.519992 C 9.302898 21.546141 8.231922 20.532109 7.310969 19.499 C 8.231922 18.465023 9.302898 17.450125 10.499039 16.477141 C 10.421859 17.45793 10.373875 18.463 10.373875 19.499 C 10.373875 20.535 10.421859 21.54007 10.499039 22.519992 Z M 11.770047 14.258008 C 12.01893 12.627117 12.377945 11.110117 12.826859 9.750078 C 14.207133 10.055906 15.659094 10.505977 17.139094 11.102023 C 16.188945 11.559898 15.23793 12.057953 14.295008 12.617 C 13.417125 13.137023 12.577977 13.687977 11.770047 14.258008 Z M 19.609133 11.102023 C 21.087977 10.505977 22.541094 10.055906 23.921078 9.750078 C 24.369992 11.108961 24.729008 12.627117 24.979047 14.258008 C 24.171117 13.687977 23.333125 13.137023 22.456109 12.617 C 21.510008 12.057953 20.558992 11.559898 19.609133 11.102023 Z M 26.248898 16.475984 C 27.445039 17.448969 28.518039 18.463867 29.436969 19.498133 C 28.516883 20.532109 27.445039 21.547008 26.248898 22.519125 C 26.326945 21.538914 26.374062 20.534133 26.374062 19.498133 C 26.374062 18.462133 26.326078 17.455906 26.248898 16.475984 Z M 16.477141 3.895984 C 16.919117 4.461102 17.599859 4.831969 18.373969 4.831969 C 19.148078 4.831969 19.829109 4.461969 20.271086 3.895984 C 21.557992 4.770977 22.702102 6.501016 23.581141 8.792992 C 21.914117 9.169062 20.158062 9.754992 18.373969 10.532859 C 16.589875 9.754992 14.834977 9.169062 13.167086 8.792992 C 14.046125 6.501016 15.189945 4.770977 16.477141 3.895984 Z M 5.889937 17.731094 C 4.03907 15.109008 3.493898 12.732914 4.396063 11.211867 C 5.336094 9.62607 7.513023 9.29307 9.173109 9.29307 C 9.992891 9.29307 10.880891 9.384992 11.807914 9.543109 C 11.274016 11.195102 10.877133 13.067937 10.636922 15.095133 C 9.130039 16.251094 7.783875 17.477008 6.651906 18.734141 C 6.381055 18.399984 6.126102 18.064094 5.889937 17.731094 Z M 9.173109 29.702906 C 8.18307 29.702906 7.012078 29.578031 6.026953 29.143859 C 6.242016 28.783977 6.374117 28.365992 6.374117 27.915055 C 6.374117 26.603 5.325977 25.540117 4.022016 25.503984 C 4.178977 24.256102 4.801906 22.807031 5.889937 21.266039 C 6.126102 20.931883 6.381922 20.598016 6.651906 20.263859 C 7.783875 21.520125 9.130039 22.744883 10.636922 23.902867 C 10.877133 25.928039 11.274016 27.800875 11.807047 29.456047 C 10.880891 29.610984 9.992891 29.702906 9.173109 29.702906 Z M 18.373969 35.74807 C 16.329141 35.74807 14.460062 33.574898 13.167086 30.202984 C 14.834977 29.82807 16.589875 29.242141 18.373969 28.463117 C 20.158062 29.240984 21.912961 29.826914 23.581141 30.202984 C 22.287875 33.574898 20.419086 35.74807 18.373969 35.74807 Z M 27.575117 29.702906 C 26.755047 29.702906 25.867047 29.608961 24.940891 29.452867 C 25.473922 27.800875 25.871961 25.930062 26.111016 23.899977 C 27.617898 22.744883 28.964062 21.518969 30.094875 20.260969 C 30.366016 20.595125 30.620102 20.928992 30.857133 21.262859 C 31.944875 22.804141 32.568094 24.254945 32.725922 25.501961 C 31.419937 25.536938 30.372086 26.600977 30.372086 27.913031 C 30.372086 28.363969 30.503898 28.781953 30.720117 29.142992 C 29.734125 29.576875 28.566023 29.702906 27.575117 29.702906 Z M 27.575117 29.702906 " transform="matrix(13.513514,0,0,13.513514,0,0)"/>
</g>
</svg>
